<svg aria-hidden="true" style="position: absolute; width: 0; height: 0; overflow: hidden;" version="1.1" xmlns="http://www.w3.org/2000/svg" xmlns:xlink="http://www.w3.org/1999/xlink">
<defs>
<symbol id="search" viewBox="0 0 32 32">
<path d="M31.563 27.669l-6.231-6.231c-0.281-0.281-0.663-0.438-1.063-0.438h-1.019c1.725-2.206 2.75-4.981 2.75-8 0-7.181-5.819-13-13-13s-13 5.819-13 13 5.819 13 13 13c3.019 0 5.794-1.025 8-2.75v1.019c0 0.4 0.156 0.781 0.438 1.063l6.231 6.231c0.587 0.587 1.538 0.587 2.119 0l1.769-1.769c0.587-0.587 0.587-1.538 0.006-2.125zM13 21c-4.419 0-8-3.575-8-8 0-4.419 3.575-8 8-8 4.419 0 8 3.575 8 8 0 4.419-3.575 8-8 8z"></path>
</symbol>
<symbol id="trophy" viewBox="0 0 36 32">
<path d="M34.5 4h-6.5v-2.5c0-0.831-0.669-1.5-1.5-1.5h-17c-0.831 0-1.5 0.669-1.5 1.5v2.5h-6.5c-0.831 0-1.5 0.669-1.5 1.5v3.5c0 2.231 1.406 4.525 3.869 6.294 1.969 1.419 4.362 2.319 6.875 2.606 1.963 3.256 4.256 4.6 4.256 4.6v4.5h-3c-2.206 0-4 1.294-4 3.5v0.75c0 0.413 0.338 0.75 0.75 0.75h18.5c0.413 0 0.75-0.337 0.75-0.75v-0.75c0-2.206-1.794-3.5-4-3.5h-3v-4.5s2.294-1.344 4.256-4.6c2.519-0.288 4.913-1.188 6.875-2.606 2.456-1.769 3.869-4.063 3.869-6.294v-3.5c0-0.831-0.669-1.5-1.5-1.5zM6.206 12.050c-1.525-1.1-2.206-2.325-2.206-3.050v-1h4.012c0.063 2.037 0.363 3.825 0.8 5.387-0.944-0.325-1.825-0.775-2.606-1.338zM32 9c0 1.006-1.106 2.256-2.206 3.050-0.781 0.563-1.669 1.012-2.613 1.338 0.438-1.563 0.738-3.35 0.8-5.388h4.019v1z"></path>
</symbol>
<symbol id="tv" viewBox="0 0 40 32">
<path d="M37 0h-34c-1.657 0-3 1.343-3 3v0 20c0 1.657 1.343 3 3 3v0h15v2h-11c-0.552 0-1 0.448-1 1v0 2c0 0.552 0.448 1 1 1v0h26c0.552 0 1-0.448 1-1v0-2c0-0.552-0.448-1-1-1v0h-11v-2h15c1.657 0 3-1.343 3-3v0-20c0-1.657-1.343-3-3-3v0zM36 22h-32v-18h32z"></path>
</symbol>
</defs>
</svg>
